<?xml version="1.0" encoding="utf-8"?>
<!-- Svg Vector Icons : http://www.onlinewebfonts.com/icon -->
<!DOCTYPE svg PUBLIC "-//W3C//DTD SVG 1.1//EN" "http://www.w3.org/Graphics/SVG/1.1/DTD/svg11.dtd">
<svg version="1.1" xmlns="http://www.w3.org/2000/svg" xmlns:xlink="http://www.w3.org/1999/xlink" x="0px" y="0px" viewBox="0 0 1000 1000" enable-background="new 0 0 1000 1000" xml:space="preserve">
<metadata> Svg Vector Icons : http://www.onlinewebfonts.com/icon </metadata>
<g><g transform="translate(0.000000,444.000000) scale(0.100000,-0.100000)"><path d="M5705.2,3667c-312.1-37.1-708-159.9-949.8-296.5c-454.5-257.5-830.9-628-1059.1-1043.5c-42.9-78-81.9-142.4-85.8-142.4c-5.8,0-41,15.6-81.9,37.1c-204.8,101.4-550,169.7-762.6,148.2c-290.6-27.3-555.9-130.7-788-306.2C1658,1825.8,1465,1459.2,1408.4,993c-9.8-81.9-17.6-91.7-103.4-132.6c-158-78-399.8-245.8-534.4-370.6C191.3-52.4-36.9-875.5,181.6-1638.1c195-674.8,741.2-1232.7,1402.3-1433.6c226.3-68.3,374.5-89.7,635.8-93.6c214.5-3.9,234.1,0,275,39c58.5,58.5,58.5,167.7,0,226.2c-39,37.1-70.2,42.9-312.1,54.6c-146.3,7.8-306.2,21.4-355,33.1c-696.3,167.8-1232.7,711.9-1373.1,1394.6c-41,191.2-41,538.3,0,731.4C540.5-265,794,129,1145.1,390.3c251.6,185.3,604.6,323.8,875.7,343.3c224.3,15.6,273.1,25.4,316,68.3c80,80,29.3,234.1-87.8,263.3c-42.9,9.7-317.9-15.6-458.3-42.9c-58.5-11.7-60.5-11.7-48.8,52.7c42.9,251.6,150.2,458.3,337.4,643.6c232.1,230.1,468.1,329.6,789.9,329.6c407.6,0,745.1-183.3,985-536.4c85.8-128.7,97.5-136.5,173.6-142.4c101.4-7.8,159.9,42.9,159.9,140.4c0,74.1-142.4,306.2-251.6,409.6l-58.5,56.6l81.9,158c317.9,612.4,924.5,1059.1,1614.9,1191.7c202.9,37.1,606.6,39,821.1,0c438.8-76.1,866-298.4,1193.7-622.2c360.8-353,591-805.5,667-1299c13.7-101.4,27.3-232.1,27.3-290.6v-103.4l-62.4,11.7c-161.9,29.3-401.8,52.7-456.4,41c-81.9-13.7-132.6-74.1-132.6-158c0-117,50.7-146.3,282.8-163.8c799.7-68.3,1429.7-604.6,1628.6-1384.8c54.6-218.5,50.7-633.9-7.8-858.2c-136.5-501.3-487.6-932.3-949.9-1160.5c-257.5-126.8-419.3-165.8-749-183.3c-273.1-13.7-280.8-13.7-325.7-66.3c-56.6-66.3-58.5-128.7-7.8-195c56.6-70.2,136.5-80,427.1-56.6c887.5,78,1597.4,630,1872.4,1457c80,241.9,107.3,452.5,93.6,747c-31.2,776.3-473.9,1457-1166.3,1798.3l-128.7,64.4l-11.7,275c-21.5,514.9-152.1,916.7-434.9,1343.8c-380.3,569.5-994.7,977.2-1669.6,1107.8C6255.2,3674.8,5911.9,3690.4,5705.2,3667z"/><path d="M4741.7-592.7c-472-109.2-827-429.1-983-889.4c-35.1-101.4-44.9-187.2-52.7-421.3l-9.8-296.5l-163.8-7.8c-136.5-7.8-175.5-17.5-255.5-66.3c-105.3-64.4-206.7-214.6-228.2-333.5c-21.5-132.6-13.7-1712.5,9.8-1819.7c29.3-134.6,120.9-251.6,249.6-316l107.3-54.6H5005c1776.8,0,1669.6-7.8,1813.9,138.5c140.4,138.5,138.5,117,138.5,1137.1c0,661.2-5.8,936.2-23.4,994.7c-31.2,107.3-193.1,269.2-300.4,300.4c-44.9,13.7-132.6,23.4-197,23.4h-117l-11.7,278.9c-13.7,317.9-39,427.1-152.1,657.3c-148.3,298.4-456.4,550-797.7,651.5C5207.8-571.2,4889.9-559.5,4741.7-592.7z M5313.1-937.9c218.4-74.1,386.2-202.9,511-390.1c122.9-183.3,158-325.7,158-624.1v-251.6h-985h-985v210.6c0,370.6,81.9,592.9,294.5,809.4c146.3,146.3,341.3,253.6,524.7,284.8C4973.8-873.5,5176.6-891.1,5313.1-937.9z M6588.7-2572.3l56.6-56.6V-3491c0-881.6-1.9-912.8-76.1-969.4c-23.4-19.5-390.1-23.4-1568.1-25.4H3464.1l-46.8,48.8l-48.8,46.8v885.5c0,928.4-1.9,918.7,87.8,965.5c27.3,15.6,495.4,21.5,1556.4,23.4h1519.4L6588.7-2572.3z"/><path d="M4854.8-3056.1c-193.1-95.6-230.2-349.1-70.2-509.1l66.3-66.3V-3844c0-200.9,2-216.5,48.8-261.4c50.7-52.7,99.5-60.4,171.6-27.3c72.2,33.2,91.7,97.5,91.7,314c0,181.4,3.9,197,46.8,232.1c111.2,87.8,144.3,292.6,64.4,409.6C5176.6-3032.7,5005-2981.9,4854.8-3056.1z"/></g></g>
</svg>